# xmcd
#
# Track frame offsets:
#	150
#	17755
#	37569
#	50687
#	68123
#	83376
#	103141
#	118970
#	146175
#	163972
#	177306
#
# Disc length: 2615 seconds
#
# Revision: 1
# Processed by: cddbd v1.5.2PL0 Copyright (c) Steve Scherf et al.
# Submitted via: audiograbber 1.83.01
#
DISCID=940a350b
DTITLE=Blue Moon - Blue Moon 002
DYEAR=2007
DGENRE=Country
TTITLE0=Baby Shot Me Down - Rogersong Band
TTITLE1=That Rundown Feeling  - Roger Eydenburgh
TTITLE2=Train To Purgstory  - Rogersong Band
TTITLE3=Do I Ever Cross Your Mind  - Roger Eydenburgh
TTITLE4=Nursery Rhyme  - Rogersong Band
TTITLE5=Lost  - Roger Eydenburgh
TTITLE6=Who Knew - Rogersong Band
TTITLE7=Chererokee Bill  - Roger Eydenburgh
TTITLE8=Love Is Sex, Passion, Lust  - Rogersong Band
TTITLE9=Granny Grunt  - Roger Eydenburgh
TTITLE10=Shovelin Shit  - Rogersong Band
EXTD=
EXTT0=
EXTT1=
EXTT2=
EXTT3=
EXTT4=
EXTT5=
EXTT6=
EXTT7=
EXTT8=
EXTT9=
EXTT10=
PLAYORDER=
